# xmcd CD database file
#
# Track frame offsets:
#	150
#	35418
#	65799
#	113593
#	132739
#	168168
#	209787
#	256611
#
# Disc length: 4151 seconds
#
# Revision: 0
# Processed by: cddbd v1.5.1PL0 Copyright (c) Steve Scherf et al.
# Submitted via: CDex 1.51
#
DISCID=74103508
DTITLE=Danny D'Imperio - Big Band Bloviation
DYEAR=2001
DGENRE=Jazz
TTITLE0=Three More Foxes
TTITLE1=Good bait
TTITLE2=Del Sasser
TTITLE3=Danny Boy
TTITLE4=Four on Six
TTITLE5=Adam's Apple
TTITLE6=Red Cross
TTITLE7=Daahoud
EXTD=YEAR: 2001
EXTT0=
EXTT1=
EXTT2=
EXTT3=
EXTT4=
EXTT5=
EXTT6=
EXTT7=
PLAYORDER=
